# xmcd
#
# Track frame offsets:
#	150
#	13540
#	27995
#	39511
#	59432
#	71648
#	88770
#	104575
#	121747
#
# Disc length: 1820 seconds
#
# Revision: 0
# Processed by: cddbd v1.5PL3 Copyright (c) Steve Scherf et al.
# Submitted via: dBpowerAMP V4.0
#
DISCID=74071a09
DTITLE=Little Bill and The Blue Notes - One Night Only
DYEAR=2002
DGENRE=Blues
TTITLE0=Grits Ain't Groceries
TTITLE1=Cherry Red
TTITLE2=Ain't Misbehavin
TTITLE3=Losing Hand
TTITLE4=Down Town Rumba Girl
TTITLE5=Guess Who
TTITLE6=Bye Bye Black Bird
TTITLE7=Lincoln Continental Blues
TTITLE8=Shake Rattle and Roll
EXTD=Local Band in Seattle www.havemusic.com/littlebill
EXTT0=
EXTT1=
EXTT2=
EXTT3=
EXTT4=
EXTT5=
EXTT6=
EXTT7=
EXTT8=
PLAYORDER=
